<?xml version="1.0" standalone="no"?>
<!DOCTYPE svg PUBLIC "-//W3C//DTD SVG 20010904//EN"
 "http://www.w3.org/TR/2001/REC-SVG-20010904/DTD/svg10.dtd">
<svg version="1.0" xmlns="http://www.w3.org/2000/svg"
 width="64.000000pt" height="64.000000pt" viewBox="0 0 64.000000 64.000000"
 preserveAspectRatio="xMidYMid meet">

<g transform="translate(0.000000,64.000000) scale(0.100000,-0.100000)"
fill="#000000" stroke="none">
<path d="M43 416 c-21 -19 -25 -27 -16 -36 8 -9 18 -7 42 11 26 19 35 21 55
11 19 -8 27 -8 36 3 9 11 7 16 -9 24 -33 18 -78 13 -108 -13z"/>
<path d="M280 340 c0 -53 4 -90 10 -90 6 0 10 15 10 34 0 30 4 34 32 40 43 8
58 23 58 57 0 34 -23 49 -74 49 l-36 0 0 -90z m89 46 c4 -22 -23 -46 -51 -46
-14 0 -18 8 -18 36 0 34 1 35 32 32 23 -2 34 -9 37 -22z"/>
<path d="M427 369 c-9 -6 -15 -14 -12 -19 4 -6 14 -5 25 2 14 9 22 9 34 -1 20
-17 21 -32 1 -25 -22 9 -62 -4 -69 -22 -3 -8 -1 -24 4 -35 9 -15 20 -19 55
-17 l45 1 0 48 c0 38 -5 51 -22 63 -26 18 -36 19 -61 5z m61 -76 c-3 -19 -30
-28 -53 -19 -25 9 -5 36 27 36 23 0 29 -4 26 -17z"/>
<path d="M529 348 c5 -13 16 -39 24 -58 13 -30 13 -38 1 -62 -9 -18 -11 -28
-4 -28 10 0 80 140 80 161 0 23 -19 5 -34 -33 l-18 -43 -18 43 c-20 43 -47 61
-31 20z"/>
<path d="M110 340 c0 -15 7 -20 25 -20 32 0 32 -15 1 -35 -26 -18 -74 -11 -83
11 -5 14 -33 8 -33 -7 0 -5 15 -18 33 -30 61 -38 147 3 147 72 0 28 -2 29 -45
29 -38 0 -45 -3 -45 -20z"/>
</g>
</svg>
