<?xml version="1.0" standalone="no"?>
<!DOCTYPE svg PUBLIC "-//W3C//DTD SVG 20010904//EN"
 "http://www.w3.org/TR/2001/REC-SVG-20010904/DTD/svg10.dtd">
<svg version="1.0" xmlns="http://www.w3.org/2000/svg"
 width="64.000000pt" height="64.000000pt" viewBox="0 0 64.000000 64.000000"
 preserveAspectRatio="xMidYMid meet">

<g transform="translate(0.000000,64.000000) scale(0.100000,-0.100000)"
fill="#000000" stroke="none">
<path d="M100 435 c-7 -9 -10 -18 -7 -22 8 -7 37 15 37 28 0 14 -16 11 -30 -6z"/>
<path d="M210 340 c0 -80 3 -100 14 -100 9 0 16 12 18 33 3 29 7 32 38 35 46
5 70 28 70 67 0 46 -26 65 -88 65 l-52 0 0 -100z m108 38 c3 -22 -2 -30 -22
-39 -37 -17 -56 -5 -56 36 0 36 1 36 38 33 32 -3 37 -7 40 -30z"/>
<path d="M16 381 c-21 -24 -20 -69 3 -107 18 -29 23 -31 75 -32 51 0 58 2 70
26 12 23 12 29 -1 41 -13 12 -14 25 -2 71 6 24 -124 25 -145 1z"/>
<path d="M392 374 c-25 -17 -29 -34 -7 -34 8 0 15 5 15 11 0 14 52 7 57 -8 3
-8 -11 -15 -37 -19 -47 -8 -67 -33 -50 -64 12 -23 59 -27 78 -8 9 9 12 9 12 0
0 -7 7 -12 15 -12 12 0 15 13 15 59 0 51 -3 62 -22 75 -12 9 -29 16 -38 16 -9
0 -26 -7 -38 -16z m68 -82 c0 -14 -23 -32 -41 -32 -17 0 -32 23 -22 34 9 9 63
7 63 -2z"/>
<path d="M509 385 c-3 -3 6 -39 20 -81 25 -73 25 -76 7 -89 -27 -20 -17 -37
14 -22 18 9 33 35 57 101 18 49 31 91 28 94 -13 13 -32 -12 -44 -57 -7 -28
-16 -51 -20 -51 -3 0 -13 23 -21 52 -14 47 -28 66 -41 53z"/>
</g>
</svg>
